{
  "accessors": [
    {
      "bufferView": 2,
      "componentType": 5126,
      "count": 3223,
      "max": [
        0.99999946355819702,
        0.99999821186065674,
        1
      ],
      "min": [
        -0.99999862909317017,
        -0.99999892711639404,
        -1
      ],
      "type": "VEC3"
    },
    {
      "bufferView": 2,
      "byteOffset": 38676,
      "componentType": 5126,
      "count": 3223,
      "max": [
        1,
        1,
        1
      ],
      "min": [
        -1,
        -1,
        -1
      ],
      "type": "VEC3"
    },
    {
      "bufferView": 1,
      "componentType": 5126,
      "count": 3223,
      "max": [
        1,
        1
      ],
      "min": [
        0,
        0
      ],
      "type": "VEC2"
    },
    {
      "bufferView": 0,
      "componentType": 5125,
      "count": 17664,
      "max": [
        3222
      ],
      "min": [
        0
      ],
      "type": "SCALAR"
    },
    {
      "bufferView": 2,
      "byteOffset": 77352,
      "componentType": 5126,
      "count": 222,
      "max": [
        1,
        1,
        1.4811575965723023e-08
      ],
      "min": [
        -1,
        -1,
        -1.43807570296417e-08
      ],
      "type": "VEC3"
    },
    {
      "bufferView": 2,
      "byteOffset": 80016,
      "componentType": 5126,
      "count": 222,
      "max": [
        0,
        3.0519440770149231e-05,
        1
      ],
      "min": [
        -6.1038881540298462e-05,
        -3.0519440770149231e-05,
        -1
      ],
      "type": "VEC3"
    },
    {
      "bufferView": 1,
      "byteOffset": 25784,
      "componentType": 5126,
      "count": 222,
      "max": [
        0,
        0
      ],
      "min": [
        0,
        0
      ],
      "type": "VEC2"
    },
    {
      "bufferView": 0,
      "byteOffset": 70656,
      "componentType": 5125,
      "count": 768,
      "max": [
        221
      ],
      "min": [
        0
      ],
      "type": "SCALAR"
    },
    {
      "bufferView": 2,
      "byteOffset": 82680,
      "componentType": 5126,
      "count": 222,
      "max": [
        1,
        1,
        1.4811575965723023e-08
      ],
      "min": [
        -1,
        -1,
        -1.43807570296417e-08
      ],
      "type": "VEC3"
    },
    {
      "bufferView": 2,
      "byteOffset": 85344,
      "componentType": 5126,
      "count": 222,
      "max": [
        0,
        3.0519440770149231e-05,
        1
      ],
      "min": [
        -6.1038881540298462e-05,
        -3.0519440770149231e-05,
        -1
      ],
      "type": "VEC3"
    },
    {
      "bufferView": 1,
      "byteOffset": 27560,
      "componentType": 5126,
      "count": 222,
      "max": [
        0,
        0
      ],
      "min": [
        0,
        0
      ],
      "type": "VEC2"
    },
    {
      "bufferView": 0,
      "byteOffset": 73728,
      "componentType": 5125,
      "count": 768,
      "max": [
        221
      ],
      "min": [
        0
      ],
      "type": "SCALAR"
    },
    {
      "bufferView": 2,
      "byteOffset": 88008,
      "componentType": 5126,
      "count": 222,
      "max": [
        1,
        1,
        1.4811575965723023e-08
      ],
      "min": [
        -1,
        -1,
        -1.43807570296417e-08
      ],
      "type": "VEC3"
    },
    {
      "bufferView": 2,
      "byteOffset": 90672,
      "componentType": 5126,
      "count": 222,
      "max": [
        0,
        3.0519440770149231e-05,
        1
      ],
      "min": [
        -6.1038881540298462e-05,
        -3.0519440770149231e-05,
        -1
      ],
      "type": "VEC3"
    },
    {
      "bufferView": 1,
      "byteOffset": 29336,
      "componentType": 5126,
      "count": 222,
      "max": [
        0,
        0
      ],
      "min": [
        0,
        0
      ],
      "type": "VEC2"
    },
    {
      "bufferView": 0,
      "byteOffset": 76800,
      "componentType": 5125,
      "count": 768,
      "max": [
        221
      ],
      "min": [
        0
      ],
      "type": "SCALAR"
    }
  ],
  "asset": {
    "extras": {
      "author": "Axt (https://sketchfab.com/shooter24994)",
      "license": "CC-BY-4.0 (http://creativecommons.org/licenses/by/4.0/)",
      "source": "https://sketchfab.com/3d-models/uranus-4d2f0c3674904472ac413fdabbf491d7",
      "title": "Uranus"
    },
    "generator": "Sketchfab-8.78.0",
    "version": "2.0"
  },
  "bufferViews": [
    {
      "buffer": 0,
      "byteLength": 79872,
      "byteOffset": 0,
      "name": "floatBufferViews",
      "target": 34963
    },
    {
      "buffer": 0,
      "byteLength": 31112,
      "byteOffset": 79872,
      "byteStride": 8,
      "name": "floatBufferViews",
      "target": 34962
    },
    {
      "buffer": 0,
      "byteLength": 93336,
      "byteOffset": 110984,
      "byteStride": 12,
      "name": "floatBufferViews",
      "target": 34962
    }
  ],
  "buffers": [
    {
      "byteLength": 204320,
      "uri": "scene.bin"
    }
  ],
  "images": [
    {
      "uri": "textures/Material.002_baseColor.jpeg"
    }
  ],
  "materials": [
    {
      "doubleSided": true,
      "emissiveFactor": [
        0,
        0,
        0
      ],
      "name": "Material.002",
      "pbrMetallicRoughness": {
        "baseColorFactor": [
          1,
          1,
          1,
          1
        ],
        "baseColorTexture": {
          "index": 0,
          "texCoord": 0
        },
        "metallicFactor": 0,
        "roughnessFactor": 0.80404082060000004
      }
    },
    {
      "doubleSided": true,
      "emissiveFactor": [
        0,
        0,
        0
      ],
      "name": "ring",
      "pbrMetallicRoughness": {
        "baseColorFactor": [
          0.49871995309357209,
          0.49871995309357209,
          0.49871995309357209,
          1
        ],
        "metallicFactor": 0.69484978932199992,
        "roughnessFactor": 0.43283384710796557
      }
    }
  ],
  "meshes": [
    {
      "name": "Sphere_Material.002_0",
      "primitives": [
        {
          "attributes": {
            "NORMAL": 1,
            "POSITION": 0,
            "TEXCOORD_0": 2
          },
          "indices": 3,
          "material": 0,
          "mode": 4
        }
      ]
    },
    {
      "name": "Circle_ring_0",
      "primitives": [
        {
          "attributes": {
            "NORMAL": 5,
            "POSITION": 4,
            "TEXCOORD_0": 6
          },
          "indices": 7,
          "material": 1,
          "mode": 4
        }
      ]
    },
    {
      "name": "Circle.001_ring_0",
      "primitives": [
        {
          "attributes": {
            "NORMAL": 9,
            "POSITION": 8,
            "TEXCOORD_0": 10
          },
          "indices": 11,
          "material": 1,
          "mode": 4
        }
      ]
    },
    {
      "name": "Circle.002_ring_0",
      "primitives": [
        {
          "attributes": {
            "NORMAL": 13,
            "POSITION": 12,
            "TEXCOORD_0": 14
          },
          "indices": 15,
          "material": 1,
          "mode": 4
        }
      ]
    }
  ],
  "nodes": [
    {
      "children": [
        1
      ],
      "name": "RootNode (gltf orientation matrix)",
      "rotation": [
        -0.70710678118654746,
        -0,
        -0,
        0.70710678118654757
      ]
    },
    {
      "children": [
        2
      ],
      "matrix": [
        -1,
        1.7853747624282703e-32,
        -2.832769343193999e-16,
        0,
        -2.770065955897755e-32,
        1,
        1.6081226229577292e-16,
        0,
        2.832769343193999e-16,
        1.6081226229577292e-16,
        -1,
        0,
        8.3446502685546875e-05,
        7.3845427550622844e-09,
        0.0028896667063236237,
        1
      ],
      "name": "RootNode (model correction matrix)"
    },
    {
      "children": [
        3
      ],
      "matrix": [
        1,
        0,
        0,
        0,
        0,
        0,
        1,
        0,
        0,
        -1,
        0,
        0,
        0,
        0,
        0,
        1
      ],
      "name": "aae52dc744aa4ce19d2d093f837751c7.fbx"
    },
    {
      "children": [
        4,
        6,
        8,
        10
      ],
      "name": "RootNode"
    },
    {
      "children": [
        5
      ],
      "matrix": [
        100,
        0,
        0,
        0,
        0,
        -1.6292067939183141e-05,
        -99.999999999998678,
        0,
        0,
        99.999999999998678,
        -1.6292067939183141e-05,
        0,
        0,
        0,
        0,
        1
      ],
      "name": "Sphere"
    },
    {
      "mesh": 0,
      "name": "Sphere_Material.002_0"
    },
    {
      "children": [
        7
      ],
      "matrix": [
        31.145334778194357,
        -151.03649041027182,
        -1.5116153897651512e-05,
        0,
        -2.7659846940741027e-05,
        9.730443564776482e-06,
        -154.21430969238003,
        0,
        151.03649041027003,
        31.145334778196514,
        -2.5124700141267755e-05,
        0,
        0,
        0,
        0,
        1
      ],
      "name": "Circle"
    },
    {
      "mesh": 1,
      "name": "Circle_ring_0"
    },
    {
      "children": [
        9
      ],
      "matrix": [
        29.824880345408314,
        -144.63297863108622,
        -1.9300364592923884e-05,
        0,
        -2.746163082586288e-05,
        1.4043559668059388e-05,
        -147.67605590819991,
        0,
        144.63297863108491,
        29.824880345411266,
        -2.4059485877233488e-05,
        0,
        0,
        0,
        0,
        1
      ],
      "name": "Circle.001"
    },
    {
      "mesh": 2,
      "name": "Circle.001_ring_0"
    },
    {
      "children": [
        11
      ],
      "matrix": [
        28.460930410450317,
        -138.01871367313024,
        -1.3813298435177676e-05,
        0,
        -2.5275852685851622e-05,
        8.891779431686697e-06,
        -140.92262268066153,
        0,
        138.01871367312864,
        28.460930410452288,
        -2.2959211946075892e-05,
        0,
        0,
        0,
        0,
        1
      ],
      "name": "Circle.002"
    },
    {
      "mesh": 3,
      "name": "Circle.002_ring_0"
    }
  ],
  "samplers": [
    {
      "magFilter": 9729,
      "minFilter": 9987,
      "wrapS": 10497,
      "wrapT": 10497
    }
  ],
  "scene": 0,
  "scenes": [
    {
      "name": "OSG_Scene",
      "nodes": [
        0
      ]
    }
  ],
  "textures": [
    {
      "sampler": 0,
      "source": 0
    }
  ]
}

